<?xml version="1.0" encoding="UTF-8"?>
<svg version="1.1" viewBox="0 0 3e3 2e3" width="100%" height="100%" xml:space="preserve" xmlns="http://www.w3.org/2000/svg" xmlns:cc="http://creativecommons.org/ns#" xmlns:dc="http://purl.org/dc/elements/1.1/" xmlns:rdf="http://www.w3.org/1999/02/22-rdf-syntax-ns#" xmlns:xlink="http://www.w3.org/1999/xlink"><defs><linearGradient id="linearGradient32"><stop stop-color="#f7b500" offset="0"/><stop stop-color="#f7b500" stop-opacity="0" offset="1"/></linearGradient><linearGradient id="linearGradient7"><stop stop-color="#005b8c" offset="0"/><stop stop-color="#015a8a" stop-opacity="0" offset="1"/></linearGradient><linearGradient id="linearGradient3281"><stop stop-color="#fff" offset="0"/><stop stop-opacity="0" offset="1"/></linearGradient><linearGradient id="swatch2" gradientTransform="matrix(-.62107 -.17642 .047564 -.095631 637923 133863)"><stop stop-color="#005b8c" offset="0"/></linearGradient><linearGradient id="swatch1" gradientTransform="matrix(.66245 0 0 .40323 19677 -11702)"><stop stop-color="#f7b500" offset="0"/></linearGradient><linearGradient id="linearGradient67" x2="450" y1="1225" y2="1225" gradientTransform="matrix(1.0022 0 0 1.0022 -.50223 -2.7344)" gradientUnits="userSpaceOnUse" xlink:href="#swatch2"/><linearGradient id="linearGradient69" x1="1950" x2="3e3" y1="350" y2="350" gradientTransform="matrix(1.0011 0 0 .64355 -2.8299 -.24269)" gradientUnits="userSpaceOnUse" xlink:href="#swatch2"/><linearGradient id="linearGradient74" x1="2400" x2="2850" y1="225" y2="225" gradientUnits="userSpaceOnUse" xlink:href="#swatch2"/><linearGradient id="linearGradient75" x1="2850" x2="3e3" y1="675" y2="675" gradientTransform="matrix(1.0068 0 0 1.0022 -19.764 -1.5067)" gradientUnits="userSpaceOnUse" xlink:href="#swatch2"/><linearGradient id="linearGradient76" x1="-3e3" x2="-2550" y1="1225" y2="1225" gradientTransform="matrix(1.0022 0 0 1.0022 6.194 -2.7344)" gradientUnits="userSpaceOnUse" xlink:href="#swatch1"/><linearGradient id="linearGradient77" x1="2550" x2="3e3" y1="1775" y2="1775" gradientTransform="matrix(1.0022 0 0 1.0022 -6.1941 -3.9619)" gradientUnits="userSpaceOnUse" xlink:href="#swatch2"/><linearGradient id="linearGradient78" x2="450" y1="1775" y2="1775" gradientTransform="matrix(1.0022 0 0 1.0022 -.5314 -3.9911)" gradientUnits="userSpaceOnUse" xlink:href="#swatch1"/><linearGradient id="linearGradient80" x1="-2e3" x2="-1850" y1="1750" y2="1750" gradientTransform="matrix(1.0068 0 0 1.1281 13.007 -199.25)" gradientUnits="userSpaceOnUse" xlink:href="#swatch1"/><linearGradient id="linearGradient3282" x1="148.03" x2="1050" y1="350" y2="350" gradientUnits="userSpaceOnUse" xlink:href="#linearGradient3281"/><linearGradient id="linearGradient10" x1="148.03" x2="1050" y1="680" y2="680" gradientTransform="matrix(.99782 0 0 1 2.2919 -250)" gradientUnits="userSpaceOnUse" xlink:href="#linearGradient7"/><linearGradient id="linearGradient12" x1="1042.7" x2="1042.3" y1="203.11" y2="539.52" gradientTransform="matrix(1 0 0 .35714 0 199.4)" gradientUnits="userSpaceOnUse" xlink:href="#linearGradient7"/><linearGradient id="linearGradient21" x1="148.03" x2="1050" y1="680" y2="680" gradientTransform="translate(1.9853 -250.08)" gradientUnits="userSpaceOnUse" xlink:href="#linearGradient32"/><linearGradient id="linearGradient23" x1="1042.7" x2="1042.3" y1="203.11" y2="539.52" gradientTransform="matrix(1 0 0 .35778 0 198.92)" gradientUnits="userSpaceOnUse" xlink:href="#linearGradient32"/><linearGradient id="linearGradient35" x1="148.03" x2="1050" y1="350" y2="350" gradientTransform="translate(579.99)" gradientUnits="userSpaceOnUse" xlink:href="#linearGradient3281"/><linearGradient id="linearGradient36" x1="1042.7" x2="1042.3" y1="203.11" y2="539.52" gradientTransform="matrix(1 0 0 .64286 -2600 -3e3)" gradientUnits="userSpaceOnUse" xlink:href="#linearGradient7"/><linearGradient id="linearGradient37" x1="1042.7" x2="1042.3" y1="203.11" y2="539.52" gradientTransform="matrix(1 0 0 .64286 -3035 -3e3)" gradientUnits="userSpaceOnUse" xlink:href="#linearGradient7"/><linearGradient id="linearGradient40" x1="1042.7" x2="1042.3" y1="203.11" y2="539.52" gradientTransform="matrix(1 0 0 .64286 -2485 -3e3)" gradientUnits="userSpaceOnUse" xlink:href="#linearGradient32"/><linearGradient id="linearGradient43" x1="1042.7" x2="1042.3" y1="203.11" y2="539.52" gradientTransform="matrix(1 0 0 .64286 -2050 -3e3)" gradientUnits="userSpaceOnUse" xlink:href="#linearGradient32"/><linearGradient id="linearGradient1736" x1="148.03" x2="1050" y1="350" y2="350" gradientTransform="translate(12.171)" gradientUnits="userSpaceOnUse" xlink:href="#linearGradient3281"/><linearGradient id="linearGradient1742" x1="-2e3" x2="-1850" y1="1750" y2="1750" gradientTransform="matrix(1.0068 0 0 1.1281 -986.99 -1299.2)" gradientUnits="userSpaceOnUse" xlink:href="#swatch1"/><linearGradient id="linearGradient1597" x1="1042.7" x2="1042.3" y1="203.11" y2="539.52" gradientTransform="matrix(1 0 0 .64286 -2485 -3e3)" gradientUnits="userSpaceOnUse" xlink:href="#linearGradient7"/><linearGradient id="linearGradient1598" x1="1042.7" x2="1042.3" y1="203.11" y2="539.52" gradientTransform="matrix(1 0 0 .64286 -2050 -3e3)" gradientUnits="userSpaceOnUse" xlink:href="#linearGradient7"/><clipPath id="clipPath1600"><rect transform="scale(-1,1)" x="-55.154" y="-442.87" width="400" height="200" fill="#fff" fill-rule="evenodd" opacity=".5" stroke-linecap="square" stroke-width="2" style="paint-order:stroke fill markers"/></clipPath><clipPath id="clipPath1601"><rect x="-344.85" y="-442.88" width="400" height="200" fill="#fff" fill-rule="evenodd" opacity=".5" stroke-linecap="square" stroke-width="2" style="paint-order:stroke fill markers"/></clipPath><linearGradient id="linearGradient18468" x1="148.03" x2="1050" y1="350" y2="350" gradientTransform="translate(579.06 1.3504)" gradientUnits="userSpaceOnUse" xlink:href="#linearGradient3281"/><style>.cls-1{fill:none;stroke:#231f20;stroke-miterlimit:10;}.cls-2,.cls-3{fill:#231f20;}.cls-3{font-size:108.43px;font-family:bBuruhNgepath, b Buruh Ngepath;}</style></defs><metadata><rdf:RDF><cc:Work rdf:about=""><dc:format>image/svg+xml</dc:format><dc:type rdf:resource="http://purl.org/dc/dcmitype/StillImage"/></cc:Work></rdf:RDF></metadata><rect width="3e3" height="2e3" fill="#2d2a35" style="paint-order:stroke fill markers"/><g transform="translate(-.00078867 -100)"><rect transform="scale(-1,1)" x="-2999.5" y="1000.5" width="449" height="449" fill="none" opacity=".7" stroke="url(#linearGradient76)" stroke-linecap="square" style="paint-order:markers stroke fill"/><g fill-rule="evenodd" stroke-linecap="round" stroke-linejoin="round" stroke-width="40"><rect transform="matrix(0,-1,-1,0,0,0)" x="-1450" y="-3e3" width="15" height="450" fill="url(#linearGradient40)" style="paint-order:stroke fill markers"/><rect transform="matrix(0,-1,-1,0,0,0)" x="-1015" y="-3e3" width="15" height="450" fill="url(#linearGradient43)" style="paint-order:stroke fill markers"/></g></g><g transform="rotate(90 950 -50)"><rect x="2850.5" y="450.5" width="149" height="449" fill="none" opacity=".7" stroke="url(#linearGradient75)" stroke-linecap="square" style="paint-order:markers stroke fill"/><g transform="matrix(.33333 0 0 1 2e3 -1100)" fill-rule="evenodd" stroke-linecap="round" stroke-linejoin="round" stroke-width="69.282"><rect transform="matrix(0,-1,-1,0,0,0)" x="-1565" y="-3e3" width="15" height="450" fill="url(#linearGradient36)" style="paint-order:stroke fill markers"/><rect transform="matrix(0,-1,-1,0,0,0)" x="-2e3" y="-3e3" width="15" height="450" fill="url(#linearGradient37)" style="paint-order:stroke fill markers"/></g></g><g transform="rotate(90 1950 950)"><rect x="2850.5" y="450.5" width="149" height="449" fill="none" opacity=".7" stroke="url(#linearGradient75)" stroke-linecap="square" style="paint-order:markers stroke fill"/><g transform="matrix(.33333 0 0 1 2e3 -1100)" fill-rule="evenodd" stroke-linecap="round" stroke-linejoin="round" stroke-width="69.282"><rect transform="matrix(0,-1,-1,0,0,0)" x="-1565" y="-3e3" width="15" height="450" fill="url(#linearGradient36)" style="paint-order:stroke fill markers"/><rect transform="matrix(0,-1,-1,0,0,0)" x="-2e3" y="-3e3" width="15" height="450" fill="url(#linearGradient37)" style="paint-order:stroke fill markers"/></g></g><g transform="translate(-999.99)"><rect transform="rotate(-90)" x="-1999.5" y="1550.5" width="149" height="449" fill="none" opacity=".7" stroke="url(#linearGradient80)" stroke-linecap="square" style="paint-order:markers stroke fill"/><g transform="matrix(0 .33333 1 0 549.99 1e3)" fill-rule="evenodd" stroke-linecap="round" stroke-linejoin="round" stroke-width="69.282"><rect transform="matrix(0,-1,-1,0,0,0)" x="-1450" y="-3e3" width="15" height="450" fill="url(#linearGradient40)" style="paint-order:stroke fill markers"/><rect transform="matrix(0,-1,-1,0,0,0)" x="-1015" y="-3e3" width="15" height="450" fill="url(#linearGradient43)" style="paint-order:stroke fill markers"/></g></g><g transform="rotate(90,2275,1275)"><rect x="2550.5" y="1550.5" width="449" height="449" fill="none" opacity=".7" stroke="url(#linearGradient77)" stroke-linecap="square" style="paint-order:markers stroke fill"/><g fill-rule="evenodd" stroke-linecap="round" stroke-linejoin="round" stroke-width="40"><rect transform="matrix(0,-1,-1,0,0,0)" x="-1565" y="-3e3" width="15" height="450" fill="url(#linearGradient36)" style="paint-order:stroke fill markers"/><rect transform="matrix(0,-1,-1,0,0,0)" x="-2e3" y="-3e3" width="15" height="450" fill="url(#linearGradient37)" style="paint-order:stroke fill markers"/></g></g><g transform="rotate(-90 725.01 1275)"><rect x=".47083" y="1550.5" width="449" height="449" fill="none" opacity=".7" stroke="url(#linearGradient78)" stroke-linecap="square" style="paint-order:markers stroke fill"/><g transform="matrix(-1 0 0 1 3e3 550)" fill-rule="evenodd" stroke-linecap="round" stroke-linejoin="round" stroke-width="40"><rect transform="matrix(0,-1,-1,0,0,0)" x="-1450" y="-3e3" width="15" height="450" fill="url(#linearGradient40)" style="paint-order:stroke fill markers"/><rect transform="matrix(0,-1,-1,0,0,0)" x="-1015" y="-3e3" width="15" height="450" fill="url(#linearGradient43)" style="paint-order:stroke fill markers"/></g></g><g transform="translate(0 -100)"><rect x=".5" y="1000.5" width="449" height="449" fill="none" opacity=".7" stroke="url(#linearGradient67)" stroke-linecap="square" style="paint-order:markers stroke fill"/><g transform="matrix(-1 0 0 1 3e3 -550)" fill-rule="evenodd" stroke-linecap="round" stroke-linejoin="round" stroke-width="40"><rect transform="matrix(0,-1,-1,0,0,0)" x="-1565" y="-3e3" width="15" height="450" fill="url(#linearGradient36)" style="paint-order:stroke fill markers"/><rect transform="matrix(0,-1,-1,0,0,0)" x="-2e3" y="-3e3" width="15" height="450" fill="url(#linearGradient37)" style="paint-order:stroke fill markers"/></g></g><rect x="1950.4" y=".40086" width="1049.2" height="449.2" fill="none" stroke="url(#linearGradient69)" stroke-linecap="square" stroke-width=".80172" style="paint-order:markers stroke fill"/><g transform="matrix(.99782 0 0 1 2997.7 -250)" fill-rule="evenodd" stroke-linecap="round" stroke-linejoin="round" stroke-width="40" style="paint-order:stroke fill markers" aria-label="// Backstage"><rect transform="matrix(-1.0022 0 0 1 2.2968 250)" x="150" y="410" width="900" height="40" fill="url(#linearGradient10)" fill-rule="evenodd" stroke-linecap="round" stroke-linejoin="round" stroke-width="39.956" style="paint-order:stroke fill markers"/><path d="m-406.33 692.65 13.929-25h-5.9286l-14.036 25zm9.381 0 13.929-25h-5.9286l-14.036 25z" fill="url(#linearGradient1736)"/><path d="m-372.95 687.65v-4.9643h12.464v4.9643zm0-9.9643v-5.0357h12.464v5.0357zm14.964 14.964 2.4643-2.4643v-7.5l-2.4643-2.5 2.4643-2.5v-7.5l-2.4643-2.5357h-19.964v25zm10.259-12.464v-2.5l4.9643-5.0357h7.5v7.5357zm0 12.464v-7.4643h12.464v7.4643h4.9643v-25h-14.964l-7.4643 7.5357v17.464zm40.545 0 2.4643-2.4643v-5h-4.9643v2.4643h-12.464v-15h12.464v2.5h4.9643v-4.9643l-2.4643-2.5357h-17.5l-2.4643 2.5357v20l2.4643 2.4643zm10.259 0v-9.9643h7.4643l5 4.9643v5h4.9643v-7.4643l-4.9643-5 4.9643-5v-7.5357h-4.9643v5.0357l-5 5h-7.4643v-10.036h-5v25zm40.188 0 2.4643-2.4643v-10.036l-2.4643-2.5h-14.964v-5h12.464v2.5h4.9643v-4.9643l-2.4643-2.5357h-17.5l-2.4643 2.5357v10.714l2.4643 1.7857h15v4.9643h-12.464v-2.4643h-5v5l2.4643 2.4643zm18.295 0v-20h8.6786v-5h-22.429v5h8.75v20zm13.973-12.464v-2.5l4.9643-5.0357h7.5v7.5357zm0 12.464v-7.4643h12.464v7.4643h4.9643v-25h-14.964l-7.4643 7.5357v17.464zm40.545 0 2.4643-2.4643v-11.857h-11.25v5h6.2857v4.3214h-12.464v-15h12.464v2.5h4.9643v-4.9643l-2.4643-2.5357h-17.5l-2.4643 2.5357v20l2.4643 2.4643zm26.83 0v-5h-16.214v-4.9643h14.964v-5h-14.964v-5.0357h16.214v-5h-21.214v25z" fill="url(#linearGradient1736)"/></g><rect x="2401" y="1" width="448" height="448" fill="none" stroke="url(#linearGradient74)" stroke-linecap="square" stroke-width="2" style="paint-order:markers stroke fill"/><rect transform="matrix(-1 0 0 1 3e3 -7.2718e-6)" x="1035" y="199.4" width="15" height="250" fill="url(#linearGradient12)" fill-rule="evenodd" stroke-linecap="round" stroke-linejoin="round" stroke-width="28.267" style="paint-order:stroke fill markers"/><g transform="matrix(0 1 1 0 2100 -1e3)" fill="url(#linearGradient3282)"><rect transform="scale(-1,1)" x="-2999.5" y="450.5" width="149" height="449" fill="none" opacity=".7" stroke="url(#linearGradient1742)" stroke-linecap="square" style="paint-order:markers stroke fill"/><g transform="matrix(.33333 0 0 1 2e3 -550)" fill-rule="evenodd" stroke-linecap="round" stroke-linejoin="round" stroke-width="69.282"><rect transform="matrix(0,-1,-1,0,0,0)" x="-1450" y="-3e3" width="15" height="450" fill="url(#linearGradient40)" style="paint-order:stroke fill markers"/><rect transform="matrix(0,-1,-1,0,0,0)" x="-1015" y="-3e3" width="15" height="450" fill="url(#linearGradient43)" style="paint-order:stroke fill markers"/></g></g><g transform="matrix(.99782 0 0 .99822 .31085 .87637)" fill="url(#linearGradient3282)"><rect transform="matrix(1.0022 0 0 1.0018 -.31153 -.87793)" x=".40086" y=".40086" width="1049.2" height="449.2" fill="none" stroke="#f7b500" stroke-linecap="square" stroke-width=".80172" style="paint-order:markers stroke fill"/><rect transform="matrix(1.0022 0 0 1.0018 -.31153 -.87793)" x="151" y="1" width="448" height="448" fill="none" stroke="#f7b500" stroke-linecap="square" stroke-width="2" style="paint-order:markers stroke fill"/><g fill-rule="evenodd" stroke-linecap="round" stroke-linejoin="round"><rect x="150.02" y="409.92" width="901.97" height="40" fill="url(#linearGradient21)" stroke-width="40" style="paint-order:stroke fill markers"/><g transform="translate(2.8533 -251.58)" stroke-width="40" style="paint-order:stroke fill markers" aria-label="Backstage \\ "><path d="m161.75 689v-4.9643h12.464v4.9643zm0-9.9643v-5.0357h12.464v5.0357zm14.964 14.964 2.4643-2.4643v-7.5l-2.4643-2.5 2.4643-2.5v-7.5l-2.4643-2.5357h-19.964v25zm10.259-12.464v-2.5l4.9643-5.0357h7.5v7.5357zm0 12.464v-7.4643h12.464v7.4643h4.9643v-25h-14.964l-7.4643 7.5357v17.464zm40.545 0 2.4643-2.4643v-5h-4.9643v2.4643h-12.464v-15h12.464v2.5h4.9643v-4.9643l-2.4643-2.5357h-17.5l-2.4643 2.5357v20l2.4643 2.4643zm10.259 0v-9.9643h7.4643l5 4.9643v5h4.9643v-7.4643l-4.9643-5 4.9643-5v-7.5357h-4.9643v5.0357l-5 5h-7.4643v-10.036h-5v25zm40.188 0 2.4643-2.4643v-10.036l-2.4643-2.5h-14.964v-5h12.464v2.5h4.9643v-4.9643l-2.4643-2.5357h-17.5l-2.4643 2.5357v10.714l2.4643 1.7857h15v4.9643h-12.464v-2.4643h-5v5l2.4643 2.4643zm18.295 0v-20h8.6786v-5h-22.429v5h8.75v20zm13.973-12.464v-2.5l4.9643-5.0357h7.5v7.5357zm0 12.464v-7.4643h12.464v7.4643h4.9643v-25h-14.964l-7.4643 7.5357v17.464zm40.545 0 2.4643-2.4643v-11.857h-11.25v5h6.2857v4.3214h-12.464v-15h12.464v2.5h4.9643v-4.9643l-2.4643-2.5357h-17.5l-2.4643 2.5357v20l2.4643 2.4643zm26.83 0v-5h-16.214v-4.9643h14.964v-5h-14.964v-5.0357h16.214v-5h-21.214v25z" fill="url(#linearGradient18468)"/><path d="m413.37 692.65-14.036-25h-5.9286l13.929 25zm8.94 0-14.036-25h-5.9286l13.929 25z" fill="url(#linearGradient35)"/></g><rect x="1035" y="198.92" width="15" height="250.44" fill="url(#linearGradient23)" stroke-width="28.279" style="paint-order:stroke fill markers"/></g></g><g opacity=".5" stroke="#fff" stroke-linecap="round" stroke-linejoin="round" stroke-width="8"><g transform="rotate(90,275,750)" opacity=".5"><rect x="2.3782" y="902.38" width="395.24" height="95.244" display="none" fill="#ececec" opacity=".3" stroke-miterlimit="27.2"/><g fill="none"><circle cx="250" cy="950" r="37" opacity="1" style="paint-order:stroke fill markers"/><circle cx="150" cy="950" r="37" opacity="1" style="paint-order:stroke fill markers"/><circle cx="50" cy="950" r="37" opacity="1" style="paint-order:stroke fill markers"/><circle cx="350" cy="950" r="37" opacity="1" style="paint-order:stroke fill markers"/></g></g><g transform="rotate(90,-187.5,1212.5)" opacity=".5"><rect x="2.3782" y="902.38" width="395.24" height="95.244" display="none" fill="#ececec" opacity=".3" stroke-miterlimit="27.2"/><g fill="none"><circle cx="250" cy="950" r="37" opacity="1" style="paint-order:stroke fill markers"/><circle cx="150" cy="950" r="37" opacity="1" style="paint-order:stroke fill markers"/><circle cx="50" cy="950" r="37" opacity="1" style="paint-order:stroke fill markers"/><circle cx="350" cy="950" r="37" opacity="1" style="paint-order:stroke fill markers"/></g></g><g transform="translate(900,100)" opacity=".5"><rect x="2.3782" y="902.38" width="395.24" height="95.244" display="none" fill="#ececec" opacity=".3" stroke-miterlimit="27.2"/><g fill="none"><circle cx="50" cy="950" r="37" opacity="1" style="paint-order:stroke fill markers"/><circle transform="translate(1.5 1.5)" cx="250" cy="950" r="37" opacity="1" style="paint-order:stroke fill markers"/><circle transform="translate(1.5 1.5)" cx="150" cy="950" r="37" opacity="1" style="paint-order:stroke fill markers"/><circle cx="350" cy="950" r="37" opacity="1" style="paint-order:stroke fill markers"/></g></g><g transform="translate(1700,100)" opacity=".5"><rect x="2.3782" y="902.38" width="395.24" height="95.244" display="none" fill="#ececec" opacity=".3" stroke-miterlimit="27.2"/><g fill="none"><circle cx="50" cy="950" r="37" opacity="1" style="paint-order:stroke fill markers"/><circle cx="350" cy="950" r="37" opacity="1" style="paint-order:stroke fill markers"/><circle transform="translate(1.5 1.5)" cx="250" cy="950" r="37" opacity="1" style="paint-order:stroke fill markers"/><circle transform="translate(1.5 1.5)" cx="150" cy="950" r="37" opacity="1" style="paint-order:stroke fill markers"/></g></g><g transform="translate(575,800)" opacity=".5"><rect x="2.3782" y="902.38" width="395.24" height="95.244" display="none" fill="#ececec" opacity=".3" stroke-miterlimit="27.2"/><g fill="none"><circle cx="250" cy="950" r="37" opacity="1" style="paint-order:stroke fill markers"/><circle cx="150" cy="950" r="37" opacity="1" style="paint-order:stroke fill markers"/><circle cx="50" cy="950" r="37" opacity="1" style="paint-order:stroke fill markers"/><circle cx="350" cy="950" r="37" opacity="1" style="paint-order:stroke fill markers"/></g></g><g transform="translate(2025,800)" opacity=".5"><rect x="2.3782" y="902.38" width="395.24" height="95.244" display="none" fill="#ececec" opacity=".3" stroke-miterlimit="27.2"/><g fill="none"><circle cx="250" cy="950" r="37" opacity="1" style="paint-order:stroke fill markers"/><circle cx="150" cy="950" r="37" opacity="1" style="paint-order:stroke fill markers"/><circle cx="50" cy="950" r="37" opacity="1" style="paint-order:stroke fill markers"/><circle cx="350" cy="950" r="37" opacity="1" style="paint-order:stroke fill markers"/></g></g><g transform="rotate(90,1700,2175)" opacity=".5"><rect x="2.3782" y="902.38" width="395.24" height="95.244" display="none" fill="#ececec" opacity=".3" stroke-miterlimit="27.2"/><g fill="none"><circle cx="250" cy="950" r="37" opacity="1" style="paint-order:stroke fill markers"/><circle cx="150" cy="950" r="37" opacity="1" style="paint-order:stroke fill markers"/><circle cx="50" cy="950" r="37" opacity="1" style="paint-order:stroke fill markers"/><circle cx="350" cy="950" r="37" opacity="1" style="paint-order:stroke fill markers"/></g></g><g transform="rotate(-90 1887.5 -87.5)" opacity=".5"><rect x="2.3782" y="902.38" width="395.24" height="95.244" display="none" fill="#ececec" opacity=".3" stroke-miterlimit="27.2"/><g fill="none"><circle cx="250" cy="950" r="37" opacity="1" style="paint-order:stroke fill markers"/><circle cx="150" cy="950" r="37" opacity="1" style="paint-order:stroke fill markers"/><circle cx="50" cy="950" r="37" opacity="1" style="paint-order:stroke fill markers"/><circle cx="350" cy="950" r="37" opacity="1" style="paint-order:stroke fill markers"/></g></g><g transform="translate(625,-675)" opacity=".5"><rect x="2.3782" y="902.38" width="395.24" height="95.244" display="none" fill="#ececec" opacity=".3" stroke-miterlimit="27.2"/><g fill="none"><circle cx="250" cy="950" r="37" opacity="1" style="paint-order:stroke fill markers"/><circle cx="150" cy="950" r="37" opacity="1" style="paint-order:stroke fill markers"/><circle cx="50" cy="950" r="37" opacity="1" style="paint-order:stroke fill markers"/><circle cx="350" cy="950" r="37" opacity="1" style="paint-order:stroke fill markers"/></g></g><g transform="translate(1975,-675)" opacity=".5"><rect transform="translate(-1975,700)" x="1977.4" y="202.38" width="395.24" height="95.244" display="none" fill="#ececec" opacity=".3" stroke-miterlimit="27.2"/><g fill="none"><circle cx="250" cy="950" r="37" opacity="1" style="paint-order:stroke fill markers"/><circle cx="150" cy="950" r="37" opacity="1" style="paint-order:stroke fill markers"/><circle cx="50" cy="950" r="37" opacity="1" style="paint-order:stroke fill markers"/><circle cx="350" cy="950" r="37" opacity="1" style="paint-order:stroke fill markers"/></g></g></g><g transform="matrix(0 -1 -1 0 1600 3e3)" fill-rule="evenodd"><rect transform="matrix(0,-1,-1,0,0,0)" x="-1450" y="-3e3" width="15" height="450" fill="url(#linearGradient40)" stroke-linecap="round" stroke-linejoin="round" stroke-width="40" style="paint-order:stroke fill markers"/><rect transform="matrix(0,-1,-1,0,0,0)" x="-1015" y="-3e3" width="15" height="450" fill="url(#linearGradient43)" stroke-linecap="round" stroke-linejoin="round" stroke-width="40" style="paint-order:stroke fill markers"/><rect transform="matrix(0,-1,-1,0,0,0)" x="-1435.2" y="-3e3" width="420.73" height="35" fill="#f7b500" style="paint-order:stroke fill markers"/><g transform="matrix(0 -.21406 -.21406 0 2921.2 1743.5)" fill="#fff" stroke-linejoin="round" stroke-width="46.717" style="paint-order:stroke fill markers;white-space:pre" aria-label="CHARGING STATION \\"><path d="m1497.1-251.21 6.9074-6.9074v-14.015h-13.915v6.9074h-34.937v-42.045h34.937v7.0075h13.915v-13.915l-6.9074-7.1076h-49.052l-6.9074 7.1076v56.06l6.9074 6.9074zm28.522 0v-27.93h34.937v27.93h13.915v-70.075h-13.915v28.13h-34.937v-28.13h-14.015v70.075zm70.467-34.937v-7.0075l13.915-14.115h21.022v21.123zm0 34.937v-20.922h34.937v20.922h13.915v-70.075h-41.945l-20.922 21.123v48.952zm71.468-34.937v-21.123h34.937v21.123zm48.852 34.937v-14.015l-6.9074-6.9074 6.9074-7.0075v-35.037l-6.9074-7.1076h-55.96v70.075h14.015v-20.922h20.922l7.0075 6.9074 7.0075 7.1076v6.9074zm64.56 0 6.9074-6.9074v-33.236h-31.534v14.015h17.619v12.113h-34.937v-42.045h34.937v7.0075h13.915v-13.915l-6.9074-7.1076h-49.052l-6.9074 7.1076v56.06l6.9074 6.9074zm29.523 0v-70.075h-14.015v70.075zm71.468 0v-70.075h-13.915v46.65l-34.937-46.65h-14.015v70.075h14.015v-46.75l34.937 46.75zm64.561 0 6.9074-6.9074v-33.236h-31.534v14.015h17.619v12.113h-34.937v-42.045h34.937v7.0075h13.915v-13.915l-6.9074-7.1076h-49.052l-6.9074 7.1076v56.06l6.9074 6.9074zm110.1 0 6.9073-6.9074v-28.13l-6.9073-7.0075h-41.945v-14.015h34.937v7.0075h13.915v-13.915l-6.9073-7.1076h-49.052l-6.9074 7.1076v30.032l6.9074 5.0054h42.045v13.915h-34.937v-6.9074h-14.015v14.015l6.9074 6.9074zm51.046 0v-56.06h24.326v-14.015h-62.867v14.015h24.526v56.06zm38.933-34.937v-7.0075l13.915-14.115h21.022v21.123zm0 34.937v-20.922h34.937v20.922h13.915v-70.075h-41.945l-20.922 21.123v48.952zm92.991 0v-56.06h24.326v-14.015h-62.867v14.015h24.526v56.06zm43.938 0v-70.075h-14.015v70.075z"/><path d="m2306.1-265.23v-42.045h34.937v42.045zm41.945 14.015 6.9074-6.9074v-56.06l-6.9074-7.1076h-49.052l-6.9074 7.1076v56.06l6.9074 6.9074zm78.375 0v-70.075h-13.915v46.65l-34.937-46.65h-14.015v70.075h14.015v-46.75l34.937 46.75z"/><path d="m2524.6-251.21-39.342-70.075h-16.618l39.042 70.075zm37.419 0-39.342-70.075h-16.618l39.042 70.075z"/></g></g><g transform="matrix(0 -1 -1 0 3850 3e3)" fill-rule="evenodd"><rect transform="matrix(0,-1,-1,0,0,0)" x="-1450" y="-3e3" width="15" height="450" fill="url(#linearGradient1597)" stroke-linecap="round" stroke-linejoin="round" stroke-width="40" style="paint-order:stroke fill markers"/><rect transform="matrix(0,-1,-1,0,0,0)" x="-1015" y="-3e3" width="15" height="450" fill="url(#linearGradient1598)" stroke-linecap="round" stroke-linejoin="round" stroke-width="40" style="paint-order:stroke fill markers"/><rect transform="matrix(0,-1,-1,0,0,0)" x="-1437.1" y="-3e3" width="424.39" height="35" fill="#005b8c" style="paint-order:stroke fill markers"/><g transform="matrix(0 -.21406 -.21406 0 2921.2 1562.3)" fill="#fff" stroke-linejoin="round" stroke-width="46.717" style="paint-order:stroke fill markers;white-space:pre" aria-label="//  CHARGING STATION"><path d="m1451.8-251.21 39.042-70.075h-16.618l-39.342 70.075zm37.419 0 39.042-70.075h-16.618l-39.342 70.075z"/><path d="m1626.1-251.21 6.9074-6.9074v-14.015h-13.915v6.9074h-34.937v-42.045h34.937v7.0075h13.915v-13.915l-6.9074-7.1076h-49.052l-6.9074 7.1076v56.06l6.9074 6.9074zm29.932 0v-27.93h34.937v27.93h13.915v-70.075h-13.915v28.13h-34.937v-28.13h-14.015v70.075z"/><path d="m1727.9-286.15v-7.0075l13.915-14.115h21.022v21.123zm0 34.937v-20.922h34.937v20.922h13.915v-70.075h-41.945l-20.922 21.123v48.952zm71.468-34.937v-21.123h34.937v21.123zm48.852 34.937v-14.015l-6.9074-6.9074 6.9074-7.0075v-35.037l-6.9074-7.1076h-55.96v70.075h14.015v-20.922h20.922l7.0075 6.9074 7.0075 7.1076v6.9074zm64.561 0 6.9073-6.9074v-33.236h-31.534v14.015h17.619v12.113h-34.937v-42.045h34.937v7.0075h13.915v-13.915l-6.9073-7.1076h-49.052l-6.9073 7.1076v56.06l6.9073 6.9074zm29.523 0v-70.075h-14.015v70.075z"/><path d="m2013.7-251.21v-70.075h-13.915v46.65l-34.937-46.65h-14.015v70.075h14.015v-46.75l34.937 46.75zm64.561 0 6.9074-6.9074v-33.236h-31.534v14.015h17.619v12.113h-34.937v-42.045h34.937v7.0075h13.915v-13.915l-6.9074-7.1076h-49.052l-6.9073 7.1076v56.06l6.9073 6.9074zm110.1 0 6.9074-6.9074v-28.13l-6.9074-7.0075h-41.945v-14.015h34.937v7.0075h13.915v-13.915l-6.9074-7.1076h-49.052l-6.9073 7.1076v30.032l6.9073 5.0054h42.045v13.915h-34.937v-6.9074h-14.015v14.015l6.9073 6.9074zm51.046 0v-56.06h24.326v-14.015h-62.867v14.015h24.526v56.06zm38.933-34.937v-7.0075l13.915-14.115h21.022v21.123zm0 34.937v-20.922h34.937v20.922h13.915v-70.075h-41.945l-20.922 21.123v48.952zm92.991 0v-56.06h24.326v-14.015h-62.867v14.015h24.526v56.06zm43.938 0v-70.075h-14.015v70.075zm22.616-14.015v-42.045h34.937v42.045zm41.945 14.015 6.9074-6.9074v-56.06l-6.9074-7.1076h-49.052l-6.9074 7.1076v56.06l6.9074 6.9074zm78.375 0v-70.075h-13.915v46.65l-34.937-46.65h-14.015v70.075h14.015v-46.75l34.937 46.75z"/></g></g><g transform="matrix(.99791 0 0 1.0099 3.8005 .096373)"><g stroke="#fff" stroke-width="29.884"><path d="m1495 4.7539-292.49 687.45-0.1447 0.34019 0.9477 0.33753 0.133-0.32299 292.47-687.42z" color="#000000" fill="#aba9ae"/><g fill="none"><path d="m968.23 643.53 40.084-79.215"/><path d="m1499.3 792.06v-99.019"/><path transform="translate(407.96 -87.44)" d="m1622.5 730.97-40.084-79.215"/><path d="m3002.5 222.91c-96.55 0.28544-230.97-0.60337-350.73 0-149.31 0.75225-300.69 150.08-400.84 227.74"/><path d="m-3.8085 222.7c96.55 0.28545 231.01-0.29926 350.78 0.30411 149.31 0.75225 300.69 149.77 400.84 227.44"/></g><path d="m1498.7 0.55859-0.918 0.39844 299.69 692.42 0.9605-0.30069z" color="#000000" fill="#fff"/><path d="m-3.8085 371.23s300.63 0.43105 450.94 0c201.17-0.5769 200.98-0.2696 300.63 79.215 497.06 396.48 1002.8 391.6 1503.6 0.39274 100.24-78.299 99.886-79.719 300.14-79.608 381.74 0.21261 450.94 0 450.94 0" fill="none"/></g><g stroke="#000" stroke-width="9.9612"><path d="m-3.8085 371.23s300.63 0.43105 450.94 0c201.17-0.5769 200.98 0.15519 300.63 79.64 497.06 396.48 1002.3 390.79 1503.1-0.42479 100.24-78.299 100.37-79.32 300.63-79.215 407.8 0.21261 450.94 0 450.94 0" fill="none"/><path d="m1495 4.7539-292.49 687.45-0.1447 0.34019 0.9477 0.33753 0.133-0.32299 292.47-687.42z" color="#000000" fill="#aba9ae"/><path d="m1498.7 0.55859-0.918 0.39844 299.69 692.42 0.9605-0.30069z" color="#000000" fill="#fff"/></g><g fill="none" stroke="#000" stroke-width="9.9612"><path d="m-3.8085 222.7c96.55 0.28545 231.01-0.29926 350.78 0.30411 149.31 0.75225 300.69 149.77 400.84 227.44"/><path d="m1499.3 792.06v-99.019"/><path transform="translate(407.96 -87.44)" d="m1622.5 730.97-40.084-79.215"/><path d="m3002.5 222.91c-96.55 0.28544-230.97-0.60337-350.73 0-149.31 0.75225-300.69 150.08-400.84 227.74"/><path d="m968.22 643.53 40.084-79.215"/></g></g><g transform="translate(1175.9 -198.67)"><g transform="translate(-619.29 142.99)"><g transform="matrix(-1 0 0 1 1448.5 498.54)" clip-path="url(#clipPath1600)"><path d="m-354.85-442.88h420v200h-420z" fill-rule="evenodd" opacity=".45" stroke-dasharray="2.04939, 4.09878" stroke-width="1.0247" style="paint-order:markers stroke fill"/><path d="m-344.85-248.87v6.0002h0.0232l6.5058-6.0002zm15.307 0-6.5063 6.0002h8.7782l6.5058-6.0002zm17.555 0-6.5058 6.0002h8.7786l6.5058-6.0002zm17.556 0-6.5053 6.0002h8.5235l6.5058-6.0002zm17.302 0-6.5053 6.0002h8.7782l6.5058-6.0002zm17.556 0-6.5058 6.0002h8.7776l6.5059-6.0002zm17.556 0-6.5059 6.0002h8.7726l6.5059-6.0002zm17.551 0-6.5063 6.0002h8.7777l6.5063-6.0002zm17.555 0-6.5059 6.0002h8.7782l6.5059-6.0002zm17.556 0-6.5053 6.0002h8.639l6.5063-6.0002zm17.418 0-6.5058 6.0002h8.7771l6.5058-6.0002zm17.555 0-6.5058 6.0002h8.7782l6.5058-6.0002zm17.555 0-6.5054 6.0002h8.8276l6.5063-6.0002zm17.607 0-6.5058 6.0002h8.7771l6.5053-6.0002zm17.555 0-6.5058 6.0002h8.7787l6.5058-6.0002zm17.557 0-6.5063 6.0002h8.7782l6.5058-6.0002zm17.555 0-6.5059 6.0002h8.7787l6.5053-6.0002zm17.556 0-6.5058 6.0002h8.7776l6.5059-6.0002zm17.556 0-6.5059 6.0002h8.5639l6.5053-6.0002zm17.341 0-6.5058 6.0002h8.7771l6.5058-6.0002zm17.555 0-6.5058 6.0002h8.7777l6.5058-6.0002zm17.555 0-6.5058 6.0002h8.7787l6.5053-6.0002zm17.557 0-6.5058 6.0002h8.0743l6.5063-6.0002zm16.582 0.24959-6.2356 5.7506h6.2356z" fill="#005b8c" stroke-linejoin="round" stroke-width="30" style="paint-order:stroke fill markers"/></g><g transform="translate(438.24 498.55)" clip-path="url(#clipPath1601)"><path transform="translate(-1.05e-5 8.6173e-5)" d="m-354.85-442.88h420v200h-420z" fill-rule="evenodd" opacity=".45803" stroke-dasharray="2.04939, 4.09878" stroke-width="1.0247" style="paint-order:markers stroke fill"/><path transform="translate(1877.1 559.29)" d="m-2231.9-808.2v6.0002h0.024l6.6683-6.0002zm15.689 0-6.6688 6.0002h8.9974l6.6683-6.0002zm17.994 0-6.6683 6.0002h8.9979l6.6683-6.0002zm17.995 0-6.6678 6.0002h8.7364l6.6683-6.0002zm17.734 0-6.6678 6.0002h8.9974l6.6683-6.0002zm17.995 0-6.6683 6.0002h8.9968l6.6684-6.0002zm17.995 0-6.6684 6.0002h8.9917l6.6684-6.0002zm17.989 0-6.6688 6.0002h8.9969l6.6688-6.0002zm17.994 0-6.6684 6.0002h8.9974l6.6684-6.0002zm17.994 0-6.6678 6.0002h8.8548l6.6688-6.0002zm17.853 0-6.6683 6.0002h8.9963l6.6683-6.0002zm17.994 0-6.6683 6.0002h8.9974l6.6683-6.0002zm17.994 0-6.6679 6.0002h9.0481l6.6688-6.0002zm18.046 0-6.6683 6.0002h8.9963l6.6678-6.0002zm17.994 0-6.6683 6.0002h8.9979l6.6683-6.0002zm17.995 0-6.6688 6.0002h8.9974l6.6683-6.0002zm17.994 0-6.6684 6.0002h8.9979l6.6678-6.0002zm17.994 0-6.6683 6.0002h8.9968l6.6684-6.0002zm17.994 0-6.6684 6.0002h8.7778l6.6678-6.0002zm17.775 0-6.6683 6.0002h8.9963l6.6683-6.0002zm17.994 0-6.6683 6.0002h8.9969l6.6683-6.0002zm17.994 0-6.6683 6.0002h8.9979l6.6678-6.0002zm17.995 0-6.6683 6.0002h8.276l6.6688-6.0002zm16.996 0.24959-6.3913 5.7506h6.3913z" fill="#ffbf00" stroke-linejoin="round" stroke-width="30" style="paint-order:stroke fill markers"/></g></g><g transform="matrix(.99963 0 0 .99975 803.88 1235.9)" stroke-width="1.0003"><g fill-rule="evenodd"><rect x="-929.79" y="-1037.5" width="900" height="450" fill="#282320" style="paint-order:markers stroke fill"/><g font-family="'Tape The Font'" font-size="47.698px" letter-spacing="0px" text-anchor="middle"><g transform="matrix(.55566 0 0 .55566 -217.98 -446.85)" stroke-width="15.999"><text x="-480.74686" y="-1002.4362" fill="#4b6ad5" text-align="center" style="font-variant-caps:normal;font-variant-east-asian:normal;font-variant-ligatures:normal;font-variant-numeric:normal;line-height:1;paint-order:markers stroke fill" xml:space="preserve"><tspan x="-480.74686" y="-1002.4362">0</tspan></text><text x="-482.33438" y="-1003.4946" fill="#cccccc" text-align="center" style="font-variant-caps:normal;font-variant-east-asian:normal;font-variant-ligatures:normal;font-variant-numeric:normal;line-height:1;paint-order:markers stroke fill" xml:space="preserve"><tspan x="-482.33438" y="-1003.4946">0</tspan></text></g><g transform="matrix(.55747 0 0 .55747 -218.15 -421.7)" stroke-width="15.947"><text x="-479.44592" y="-952.75201" fill="#4b6ad5" text-align="center" style="font-variant-caps:normal;font-variant-east-asian:normal;font-variant-ligatures:normal;font-variant-numeric:normal;line-height:1;paint-order:markers stroke fill" xml:space="preserve"><tspan x="-479.44592" y="-952.75201">1</tspan></text><text x="-481.03345" y="-953.81036" fill="#cccccc" text-align="center" style="font-variant-caps:normal;font-variant-east-asian:normal;font-variant-ligatures:normal;font-variant-numeric:normal;line-height:1;paint-order:markers stroke fill" xml:space="preserve"><tspan x="-481.03345" y="-953.81036">1</tspan></text></g><g transform="matrix(.53456 0 0 .53456 -229.37 -419.25)" stroke-width="16.63"><text x="-479.103" y="-902.21362" fill="#4b6ad5" text-align="center" style="font-variant-caps:normal;font-variant-east-asian:normal;font-variant-ligatures:normal;font-variant-numeric:normal;line-height:1;paint-order:markers stroke fill" xml:space="preserve"><tspan x="-479.103" y="-902.21362">2</tspan></text><text x="-480.69052" y="-903.27197" fill="#cccccc" text-align="center" style="font-variant-caps:normal;font-variant-east-asian:normal;font-variant-ligatures:normal;font-variant-numeric:normal;line-height:1;paint-order:markers stroke fill" xml:space="preserve"><tspan x="-480.69052" y="-903.27197">2</tspan></text></g><g transform="matrix(.55747 0 0 .55747 -216.32 -378.51)" stroke-width="15.947"><text x="-482.32941" y="-848.90454" fill="#4b6ad5" text-align="center" style="font-variant-caps:normal;font-variant-east-asian:normal;font-variant-ligatures:normal;font-variant-numeric:normal;line-height:1;paint-order:markers stroke fill" xml:space="preserve"><tspan x="-482.32941" y="-848.90454">3</tspan></text><text x="-483.39444" y="-849.96289" fill="#cccccc" text-align="center" style="font-variant-caps:normal;font-variant-east-asian:normal;font-variant-ligatures:normal;font-variant-numeric:normal;line-height:1;paint-order:markers stroke fill" xml:space="preserve"><tspan x="-483.39444" y="-849.96289">3</tspan></text></g><g transform="matrix(.56111 0 0 .56111 -216.25 -352.6)" stroke-width="15.844"><text x="-480.00226" y="-800.53406" fill="#4b6ad5" text-align="center" style="font-variant-caps:normal;font-variant-east-asian:normal;font-variant-ligatures:normal;font-variant-numeric:normal;line-height:1;paint-order:markers stroke fill" xml:space="preserve"><tspan x="-480.00226" y="-800.53406">5</tspan></text><text x="-481.07071" y="-801.59241" fill="#cccccc" text-align="center" style="font-variant-caps:normal;font-variant-east-asian:normal;font-variant-ligatures:normal;font-variant-numeric:normal;line-height:1;paint-order:markers stroke fill" xml:space="preserve"><tspan x="-481.07071" y="-801.59241">5</tspan></text></g><g transform="matrix(.53623 0 0 .53623 -228.36 -352.64)" stroke-width="16.578"><text x="-479.49725" y="-749.54504" fill="#4b6ad5" text-align="center" style="font-variant-caps:normal;font-variant-east-asian:normal;font-variant-ligatures:normal;font-variant-numeric:normal;line-height:1;paint-order:markers stroke fill" xml:space="preserve"><tspan x="-479.49725" y="-749.54504">9</tspan></text><text x="-480.81323" y="-750.60339" fill="#cccccc" text-align="center" style="font-variant-caps:normal;font-variant-east-asian:normal;font-variant-ligatures:normal;font-variant-numeric:normal;line-height:1;paint-order:markers stroke fill" xml:space="preserve"><tspan x="-480.81323" y="-750.60339">9</tspan></text></g><g transform="matrix(.5553 0 0 .5553 -218.81 -314.62)" stroke-width="16.009"><text x="-480.42801" y="-698.81873" fill="#4b6ad5" text-align="center" style="font-variant-caps:normal;font-variant-east-asian:normal;font-variant-ligatures:normal;font-variant-numeric:normal;line-height:1;paint-order:markers stroke fill" xml:space="preserve"><tspan x="-480.42801" y="-698.81873">15</tspan></text><text x="-481.75327" y="-699.87708" fill="#cccccc" text-align="center" style="font-variant-caps:normal;font-variant-east-asian:normal;font-variant-ligatures:normal;font-variant-numeric:normal;line-height:1;paint-order:markers stroke fill" xml:space="preserve"><tspan x="-481.75327" y="-699.87708">15</tspan></text></g></g></g><g transform="translate(892.16 -35.294)" fill="none" stroke="#6977a7" stroke-dasharray="4.00124, 2.00062" stroke-linejoin="round" stroke-width=".50016"><path d="m-1822-952.19 900 0.0124" style="paint-order:stroke fill markers"/><path d="m-1822-902.16 900 0.0124" style="paint-order:stroke fill markers"/><path d="m-1822-852.18 900 0.0124" style="paint-order:stroke fill markers"/><path d="m-1822-802.17 900 0.0124" style="paint-order:stroke fill markers"/><path d="m-1822-752.17 900 0.0124" style="paint-order:stroke fill markers"/><path d="m-1822-702.16 900 0.0124" style="paint-order:stroke fill markers"/><path d="m-1822-652.17 900 0.0124" style="paint-order:stroke fill markers"/></g><path d="m-710.28-677.98v40h-35v9.9999h80v-9.9999h-35v-40z" fill="#ffbf00" style="paint-order:stroke fill markers"/><path d="m-258.49-677.98v40h-35v9.9999h80v-9.9999h-35v-40z" fill="#005b8c" style="paint-order:stroke fill markers"/><g transform="translate(892.16 -35.294)" stroke-width="1.0003"><g stroke-linejoin="round" stroke-width="1.0003"><path d="m-1746.9-917.83c63.174-1e-5 106.1 24.459 131.23 57.795 25.125 33.336 33.062 73.94 33.062 107.45a15.002 15.002 0 0 1 0 0.0254l-0.166 100.26-30.002-0.0488 0.166-100.24v-0.0254c0-28.62-7.2411-63.125-27.021-89.369-19.785-26.251-51.499-45.849-107.26-45.85l-74.369 0.26368-0.1074-30 74.42-0.26368a15.002 15.002 0 0 1 0.053 0z" color="#000000" fill="#fff" style="-inkscape-stroke:none;paint-order:stroke fill markers"/><path d="m-1746.9-907.83c60.705-1e-5 99.895 22.838 123.24 53.812 23.345 30.975 31.049 69.551 31.049 101.43a5.0005 5.0005 0 0 1 0 8e-3l-0.166 100.26-10.001-0.0176 0.166-100.26c0-30.251-7.4714-66.793-29.035-95.404-21.563-28.611-57.011-49.828-115.24-49.832l-74.418 0.26368-0.035-10 74.418-0.26368a5.0005 5.0005 0 0 1 0.018 0z" color="#000000" style="-inkscape-stroke:none;paint-order:stroke fill markers"/><path d="m-996.37-917.41c-63.174-1e-5 -106.1 24.459-131.22 57.795-25.123 33.336-33.06 73.94-33.06 107.45v0.0254l0.1604 100.06 30-0.0488-0.1604-100.04v-0.0254c0-28.62 7.2408-63.125 27.02-89.369 19.784-26.251 51.498-45.849 107.26-45.85l74.369 0.26368 0.10743-30-74.42-0.26368c-0.0176-3e-5 -0.0351-3e-5 -0.0527 0z" color="#000000" fill="#fff" style="-inkscape-stroke:none;paint-order:stroke fill markers"/><path d="m-996.37-907.41c-60.705-1e-5 -99.895 22.838-123.24 53.812-23.344 30.975-31.047 69.551-31.047 101.43a5.0005 5.0005 0 0 0 0 8e-3l0.166 100.26 10-0.0176-0.166-100.26c0-30.251 7.471-66.793 29.033-95.404s57.01-49.828 115.23-49.832l74.418 0.26368 0.0352-10-74.418-0.26368a5.0005 5.0005 0 0 0-0.0176 0z" color="#000000" style="-inkscape-stroke:none;paint-order:stroke fill markers"/></g><rect x="-1611.4" y="-661.6" width="28.061" height="9.2589" fill="#fff" fill-rule="evenodd" style="paint-order:stroke fill markers"/><rect x="-1159.5" y="-661.16" width="28.061" height="9.2589" fill="#fff" fill-rule="evenodd" style="paint-order:stroke fill markers"/></g></g><g transform="matrix(-.68483 0 0 .99469 883.51 647.98)" fill-rule="evenodd"><rect x="-1373.5" y="-366.26" width="1533.1" height="30" fill="#fff" stroke-width="4.3045" style="paint-order:markers stroke fill"/><rect x="-1373.5" y="-356.2" width="1533.2" height="9.9836" stroke-width="2.4854" style="paint-order:markers stroke fill"/></g><g transform="matrix(.6849 0 0 .99505 -235.32 648.11)" fill-rule="evenodd"><rect x="-1373.3" y="-366.68" width="1533.1" height="30" fill="#fff" stroke-width="4.3035" style="paint-order:markers stroke fill"/><rect x="-1373.3" y="-356.67" width="1533.1" height="9.9742" stroke-width="2.4848" style="paint-order:markers stroke fill"/></g></g><g transform="translate(114.4 -1705.3)"><rect x="425.6" y="2245.3" width="120" height="120" fill="#fff"/><rect x="435.6" y="2255.3" width="100" height="100"/><path d="m452.26 2272v16.667h16.667v-16.667zm16.667 16.667v16.667h33.333v-16.667h-16.667zm0 16.667h-16.667v33.333h16.667v-16.667zm16.667 16.667v16.667h33.333v-16.667h-16.667z" fill="#fff"/></g><g transform="translate(1915.6 -1704.2)"><rect x="424.43" y="2244.2" width="120" height="120" fill="#fff"/><rect x="434.43" y="2254.2" width="100" height="100"/><path d="m451.09 2270.9v16.667h16.667v-16.667zm33.333 0v16.667h33.333v-16.667h-16.667zm0 33.333v33.333h33.333v-16.667h-16.667v-16.667zm-33.333 16.667v16.667h16.667v-16.667z" fill="#fff"/></g><g transform="translate(114.4 -905.34)"><rect x="425.6" y="2245.3" width="120" height="120" fill="#fff"/><rect x="435.6" y="2255.3" width="100" height="100"/><path d="m452.26 2272v50h16.667v16.667h16.667v-66.667h-16.667zm50 33.333v33.333h16.667v-33.333z" fill="#fff"/></g><g transform="translate(970 -1020)"><rect x="1370" y="2360" width="120" height="120" fill="#fff"/><path d="m1380 2370h100v100h-100z" stroke-width="16.667"/><path d="m1396.7 2386.7v50h16.667v-16.667h16.667v-33.333h-16.667zm50 0v33.333h16.667v-33.333zm-16.667 50v16.667h16.667v-16.667z" fill="#fff"/></g><g transform="matrix(.72208 0 0 .72208 1346.1 861.76)"><g id="logo"><path class="cls-1" transform="translate(-64.15,-151.32)" d="m363.48 390.34c-13.06 21.65-37.48 36.54-65.8 37.3a81 81 0 0 1-45-12 73.57 73.57 0 0 0 34.54-36.53 73.51 73.51 0 0 0 76.22 11.26z"/><path class="cls-2" transform="translate(-64.15,-151.32)" d="m389 154.52a70 70 0 0 0-21.55 8.32 71.16 71.16 0 0 0-8.6 6 72.62 72.62 0 0 0-7.65 7.16 70.58 70.58 0 0 0-14.37 71.65q-6.54-1-13.23-1.6l-1.78-0.15q-10.11-0.85-20.05-0.83c-2.64 0-5.26 0.06-7.87 0.17a218.45 218.45 0 0 0-23.36 2.1q-8.71 1.26-17.17 3.17-8.88 2-17.41 4.74a201.3 201.3 0 0 0-35.37 15.07q-4.71 2.56-9.21 5.38c-1.11 0.68-2.21 1.37-3.3 2.09 0.31-1.11 0.64-2.2 1-3.29a169.31 169.31 0 0 1 5.92-16.5 172.46 172.46 0 0 1 11.86-23.17c0.74-1.22 1.5-2.42 2.27-3.62s1.54-2.34 2.33-3.51l0.06-0.08q2.67-3.93 5.54-7.69a174 174 0 0 1 154.65-67.88q8.8 0.83 17.29 2.47z"/><path class="cls-2" transform="translate(-64.15,-151.32)" d="m287.26 379.08a73.51 73.51 0 0 0 76.22 11.26c-13.06 21.65-37.48 36.54-65.8 37.3a81 81 0 0 1-45-12 73.57 73.57 0 0 0 34.58-36.56z"/><path class="cls-2" transform="translate(-64.15,-151.32)" d="m491.55 419.28c-1.73 26.77-12.42 51.43-29.83 72.5a169.25 169.25 0 0 1-33.15 30.36 198.3 198.3 0 0 1-18.63 11.61c-45 22.09-106.54 28.31-170.13 13.27-0.81-0.18-1.61-0.37-2.42-0.57a307.77 307.77 0 0 1-47.39-15.7c12.29 3.89 39.86 10.64 71.71 1.18q4.19-1.24 8.13-2.75c52.69-20.06 72.34-72.43 74.69-79 0.06-0.1 0.12-0.19 0.17-0.29a82.22 82.22 0 0 0-2.56 18.79c0 32.89 22.21 59.61 49.8 59.84 26 0.23 47.67-23.22 50.53-53.51v-0.01c0.08-1.38 0.12-2.77 0.13-4.17v-0.31a73.19 73.19 0 0 0-1.6-17.15 82.57 82.57 0 0 0-5.41-16.24q-1.33-3-2.9-5.89c-0.4-0.75-0.82-1.49-1.24-2.23-10.23-17.86-27-33.95-48.23-45.93-4-2.26-8.18-4.38-12.5-6.32a168.2 168.2 0 0 0-31.54-10.63 170.23 170.23 0 0 0-24.18-3.83h-0.2a155.93 155.93 0 0 0-22.64 0.86h-0.32c-0.23-0.38-0.46-0.77-0.67-1.16a37.59 37.59 0 0 1-1.69-3.43 44.48 44.48 0 0 1-1.56-4.17 48.39 48.39 0 0 1-1.72-20.07 61.57 61.57 0 0 1 2.03-10.33v-0.11a86 86 0 0 1 17-31c1.31-1.57 2.68-3.14 4.14-4.67 0.81-0.87 1.66-1.75 2.53-2.59 0.34-0.36 0.68-0.68 1-1a107.67 107.67 0 0 1 9.12-7.87l0.44-0.35c0.76-0.57 1.53-1.15 2.31-1.71q2.76-2 5.58-3.8l0.78-0.5c1.79-1.11 3.58-2.17 5.39-3.15 1-0.58 2-1.11 3.06-1.63 0.5-0.26 1-0.51 1.54-0.76q4.26-2.08 8.56-3.71c0.78-0.31 1.57-0.59 2.36-0.88a254.55 254.55 0 0 1 30.79 11.21c60 26.34 101.78 73.17 108.11 126.14a134.83 134.83 0 0 1 0.61 21.66z"/><path class="cls-1" transform="translate(-64.15,-151.32)" d="m189 530.75"/><path class="cls-2" transform="translate(-64.15,-151.32)" d="m338.89 255.49c-1.24 0.63-2.48 1.27-3.71 2l-0.68 0.38c-1.52 0.82-3 1.71-4.54 2.64-0.64 0.38-1.28 0.78-1.91 1.19s-1 0.62-1.46 0.94c-2.29 1.51-4.57 3.11-6.81 4.81l-1.16 0.89c-0.9 0.69-1.79 1.4-2.68 2.13-0.7 0.57-1.39 1.15-2.07 1.73l-0.95 0.82a124 124 0 0 0-11 10.83l-0.12 0.13c-0.24 0.27-0.48 0.53-0.71 0.81q-2.88 3.27-5.45 6.66a107.64 107.64 0 0 0-12.32 20.53c-0.21 0.44-0.4 0.89-0.6 1.34a90.26 90.26 0 0 0-3.72 10.11 76.93 76.93 0 0 0-2.75 13.05 58 58 0 0 0 2.48 26.21q0.46 1.31 1 2.58-0.33 2.42-0.9 4.8c-0.14 0.6-0.29 1.19-0.45 1.78a55.91 55.91 0 0 1-35.58 38.25 30.9 30.9 0 0 0-6.31-13 31.4 31.4 0 0 0-5.1-5 30.61 30.61 0 0 0-4.79-3 29.31 29.31 0 0 0-3.45-1.51 31 31 0 0 0-33.63 8.22 29 29 0 0 0-2.44 3c-0.22 0.3-0.42 0.6-0.62 0.91a29.63 29.63 0 0 0-2.82 5.41 68.42 68.42 0 0 1-4-12.95c0.93-1.6 2.42-4.18 2.91-5 1.18-2.09 4.64-8.23 5.41-14.45a24.94 24.94 0 0 0-1.79-12.4c-0.06-0.16-0.13-0.32-0.2-0.48a50.19 50.19 0 0 0-6.69-40.35c3.26 7.32 6.88 18.44 5.25 31.34-1.64 13.05-7.05 15.12-9.2 26.74-1.25 9.62 0.74 19.1 4.06 27.89v0.08q0.85 2.26 1.82 4.45c0.82 1.89 1.7 3.74 2.6 5.55a3.59 3.59 0 0 1 0.17 0.34q1.08 2.13 2.19 4.17c0.05 0.1 0.11 0.2 0.17 0.3 1.46 2.6 3 5.2 4.48 7.8a0.47 0.47 0 0 1 0.06 0.09c0.66 1.13 1.38 2.32 2.15 3.57a142.85 142.85 0 0 0 23.69 28.68c-0.41-0.13-0.81-0.27-1.21-0.42-1.08-0.38-2.16-0.8-3.22-1.21-18.88-7.47-36.25-20-50.63-36.5-0.49-0.56-1-1.14-1.46-1.7 0.29 0.67 0.6 1.33 0.9 2l0.13 0.28a161 161 0 0 0 12.36 21.82 151 151 0 0 0 15.85 19.76c0.6 0.61 1.18 1.22 1.78 1.82a0.18 0.18 0 0 1-0.1 0l-0.53-0.16q-1.8-0.6-3.57-1.26c-18.09-6.69-34.85-18.07-49-33.06q-1.2-1.27-2.37-2.58c0.22 0.5 0.44 1 0.69 1.5s0.42 0.92 0.64 1.38a160.82 160.82 0 0 0 11.3 20 152.76 152.76 0 0 0 13.24 17.17c0.43 0.49 0.86 1 1.3 1.45-1.34-0.51-2.67-1-4-1.58l-1.64-0.69a131.83 131.83 0 0 1-42.83-30.31c0.11 0.21 0.21 0.42 0.32 0.62q1.53 2.91 3.16 5.73l-0.06-0.06a119.74 119.74 0 0 0 12.82 18.91c0.1 0.14 0.2 0.27 0.31 0.4a135.28 135.28 0 0 1-57.74-40.11l0.53-0.09a89.76 89.76 0 0 0 41.31-18.24 1.92 1.92 0 0 0 0.22-0.18c0.47-0.37 0.94-0.75 1.4-1.14s1.06-0.88 1.58-1.33c1.59-1.39 3.14-2.83 4.63-4.33a91.42 91.42 0 0 0 8.58-9.95 90.16 90.16 0 0 0 9.73-16.52 89.17 89.17 0 0 0 6.52-20.92c0.11-0.58 0.21-1.16 0.3-1.75a87.84 87.84 0 0 0 1.13-12.87v-1.49c0-1.6 0-3.19-0.13-4.76q1.46-2 3-4a167 167 0 0 1 23.49-25c0.72-0.62 1.44-1.24 2.18-1.86a185.48 185.48 0 0 1 30.37-20.61q2.6-1.43 5.23-2.77 8.34-4.25 17.24-7.75 7.38-2.91 15.11-5.28 9.81-3 20.11-5.09c1-0.2 1.95-0.39 2.93-0.57 6.58-1.2 13.38-2.2 20.24-2.82 2-0.18 4-0.34 6-0.46l2.81-0.16q5.63-0.28 11.32-0.29 3.54 0 7.05 0.12 4.14 0.12 8.24 0.41l1.35 0.09 0.76 0.06q6.32 0.48 12.5 1.34z"/></g><g id="police_test" data-name="police test"><text class="cls-3" transform="matrix(.64 0 0 1 0 513.94)">Sharp Attack</text></g></g></svg>
